<svg xmlns="http://www.w3.org/2000/svg" width="19.25" height="14" viewBox="0 0 19.25 14">
  <path id="Icon_material-local-shipping" data-name="Icon material-local-shipping" d="M18.125,9.5H15.5V6H3.25A1.755,1.755,0,0,0,1.5,7.75v9.625H3.25a2.625,2.625,0,0,0,5.25,0h5.25a2.625,2.625,0,0,0,5.25,0h1.75V13ZM5.875,18.688a1.313,1.313,0,1,1,1.313-1.312A1.311,1.311,0,0,1,5.875,18.688Zm11.813-7.875L19.4,13H15.5V10.813Zm-1.312,7.875a1.313,1.313,0,1,1,1.313-1.312A1.311,1.311,0,0,1,16.375,18.688Z" transform="translate(-1.5 -6)" fill="#1f1f1f"/>
</svg>
