<svg xmlns="http://www.w3.org/2000/svg" xmlns:xlink="http://www.w3.org/1999/xlink" width="30.888" height="44.562" viewBox="0 0 30.888 44.562">
  <defs>
    <clipPath id="clip-path">
      <rect id="Rectangle_364" data-name="Rectangle 364" width="30.888" height="44.562" fill="none"/>
    </clipPath>
  </defs>
  <g id="Group_1425" data-name="Group 1425" transform="translate(0)">
    <g id="Group_1424" data-name="Group 1424" transform="translate(0)" clip-path="url(#clip-path)">
      <path id="Path_1131" data-name="Path 1131" d="M141.594,184.08a.735.735,0,0,1-.735-.732c0-1.161-1.554-1.164-1.71-1.189h-.1a2.327,2.327,0,0,0-1.371.469.734.734,0,0,1-.726.643h0a.735.735,0,0,1-.735-.732,1.327,1.327,0,0,1,.425-.949,3.72,3.72,0,0,1,2.4-.9h.122c1.86,0,3.162,1.09,3.167,2.654a.735.735,0,0,1-.733.737Z" transform="translate(-123.824 -164.249)"/>
      <path id="Path_1132" data-name="Path 1132" d="M136.624,224.247a3.587,3.587,0,0,1-2.1-.688,2.452,2.452,0,0,1-1.07-1.966.735.735,0,0,1,.732-.737h0a.735.735,0,0,1,.735.732,1.059,1.059,0,0,0,.476.791,2.122,2.122,0,0,0,1.226.4h.115a1.643,1.643,0,0,0,1.75-1.725,1.934,1.934,0,0,0-.428-1.454,1.8,1.8,0,0,0-1.415-.449h-.135a2.775,2.775,0,0,1-3.084-2.613.734.734,0,0,1,.7-.763.715.715,0,0,1,.763.7c.018.465.275,1.25,1.711,1.2a3.272,3.272,0,0,1,2.507.894,3.339,3.339,0,0,1,.842,2.558,3.116,3.116,0,0,1-3.214,3.114h-.12Z" transform="translate(-121.288 -196.14)"/>
      <path id="Path_1133" data-name="Path 1133" d="M161.422,296.616a.735.735,0,0,1-.735-.733l0-1.1a.735.735,0,0,1,.733-.737h0a.735.735,0,0,1,.735.732l0,1.1a.735.735,0,0,1-.733.737Z" transform="translate(-146.064 -267.293)"/>
      <path id="Path_1134" data-name="Path 1134" d="M161.009,170.152a.734.734,0,0,1-.735-.73l-.007-1.2a.735.735,0,0,1,.73-.739h0a.734.734,0,0,1,.735.73l.007,1.2a.735.735,0,0,1-.73.739Z" transform="translate(-145.685 -152.242)"/>
      <path id="Path_1135" data-name="Path 1135" d="M93.879,294.908a.731.731,0,0,1-.471-.171,8.879,8.879,0,0,1-.781-.74.734.734,0,1,1,1.073-1,7.359,7.359,0,0,0,.652.617.735.735,0,0,1-.473,1.3" transform="translate(-84.019 -266.122)"/>
      <path id="Path_1136" data-name="Path 1136" d="M81.205,165.563a8.781,8.781,0,0,1-3.2-.6.734.734,0,1,1,.532-1.369,7.346,7.346,0,1,0-4.364-4.686.735.735,0,1,1-1.4.433,8.824,8.824,0,1,1,8.432,6.219" transform="translate(-65.797 -134.46)"/>
      <path id="Path_1137" data-name="Path 1137" d="M24.87,44.562H6.018A6.025,6.025,0,0,1,0,38.545V6.017A6.024,6.024,0,0,1,6.018,0H24.87a6.024,6.024,0,0,1,6.018,6.017V38.545a6.025,6.025,0,0,1-6.018,6.018M6.018,1.469A4.553,4.553,0,0,0,1.469,6.017V38.545a4.553,4.553,0,0,0,4.548,4.548H24.87a4.553,4.553,0,0,0,4.548-4.548V6.017A4.553,4.553,0,0,0,24.87,1.469Z"/>
      <path id="Path_1138" data-name="Path 1138" d="M30.153,417.022H.735a.735.735,0,1,1,0-1.469H30.153a.735.735,0,1,1,0,1.469" transform="translate(0 -377.743)"/>
      <path id="Path_1139" data-name="Path 1139" d="M30.082,59.525H.735a.735.735,0,0,1,0-1.469H30.082a.735.735,0,0,1,0,1.469" transform="translate(0 -52.774)"/>
      <path id="Path_1141" data-name="Path 1141" d="M147.31,444.769h-3.355a.735.735,0,1,1,0-1.469h3.355a.735.735,0,1,1,0,1.469" transform="translate(-130.189 -402.965)"/>
    </g>
  </g>
</svg>
