<svg id="Icon_feather-shopping-cart" data-name="Icon feather-shopping-cart" xmlns="http://www.w3.org/2000/svg" width="31.304" height="30" viewBox="0 0 31.304 30">
  <path id="Path_1119" data-name="Path 1119" d="M13.5,28.5a3,3,0,1,1-3,3A3,3,0,0,1,13.5,28.5Z" transform="translate(-1.643 -4.5)"/>
  <path id="Path_1120" data-name="Path 1120" d="M30,28.5a3,3,0,1,1-3,3A3,3,0,0,1,30,28.5Z" transform="translate(-4.696 -4.5)"/>
  <path id="Path_1121" data-name="Path 1121" d="M25.356,21H12.637a3.866,3.866,0,0,1-3.9-2.983L6.559,7.707q-.013-.051-.022-.1L5.453,2.471H1.3A1.271,1.271,0,0,1,0,1.235,1.271,1.271,0,0,1,1.3,0H6.522A1.289,1.289,0,0,1,7.8.993L8.9,6.177H30a1.334,1.334,0,0,1,1,.448,1.188,1.188,0,0,1,.276,1.019L29.194,18.007l0,.009A3.862,3.862,0,0,1,25.356,21ZM12.626,18.53H25.355a1.288,1.288,0,0,0,1.278-.991l1.791-8.892H9.418L11.3,17.534a1.289,1.289,0,0,0,1.3,1Z" transform="translate(0 0)"/>
</svg>
