<svg xmlns="http://www.w3.org/2000/svg" width="30" height="30" viewBox="0 0 30 30">
  <g id="Icon_feather-instagram" data-name="Icon feather-instagram" transform="translate(0.436)">
    <path id="Path_1122" data-name="Path 1122" d="M9.682,1.5H23.318A8.191,8.191,0,0,1,31.5,9.682V23.318A8.191,8.191,0,0,1,23.318,31.5H9.682A8.191,8.191,0,0,1,1.5,23.318V9.682A8.191,8.191,0,0,1,9.682,1.5ZM23.318,28.773a5.461,5.461,0,0,0,5.455-5.455V9.682a5.461,5.461,0,0,0-5.455-5.455H9.682A5.461,5.461,0,0,0,4.227,9.682V23.318a5.461,5.461,0,0,0,5.455,5.455Z" transform="translate(-1.936 -1.5)"/>
    <path id="Path_1123" data-name="Path 1123" d="M18.063,10.435a7.539,7.539,0,0,1,1.1.081,7.5,7.5,0,0,1,2.272,14.118,7.533,7.533,0,0,1-3.37.8,7.5,7.5,0,0,1,0-15Zm0,12a4.5,4.5,0,1,0-3.184-1.318A4.473,4.473,0,0,0,18.067,22.435Z" transform="translate(-3.5 -2.935)"/>
    <path id="Path_1124" data-name="Path 1124"/>
  </g>
</svg>
