<svg xmlns="http://www.w3.org/2000/svg" xmlns:xlink="http://www.w3.org/1999/xlink" width="53.687" height="53.687" viewBox="0 0 53.687 53.687">
  <defs>
    <clipPath id="clip-path">
      <rect id="Rectangle_366" data-name="Rectangle 366" width="42.995" height="42.995" fill="none"/>
    </clipPath>
  </defs>
  <g id="Group_1429" data-name="Group 1429" transform="translate(0 12.571) rotate(-17)">
    <g id="Group_1428" data-name="Group 1428" transform="translate(0)" clip-path="url(#clip-path)">
      <g id="Group_1436" data-name="Group 1436" transform="translate(2.221 2.221)">
        <path id="Path_1144" data-name="Path 1144" d="M180.174,196.8a.532.532,0,0,1-.377-.155,1.079,1.079,0,0,1-.154-1.188,2.545,2.545,0,0,1,.573-.944l.046-.046a1.8,1.8,0,0,1,2.632-.226.534.534,0,1,1-.753.757c-.44-.438-1.054.154-1.122.223l-.042.042a1.4,1.4,0,0,0-.361.7.535.535,0,0,1-.442.835m.377-.913h0" transform="translate(-164.182 -177.142)"/>
        <path id="Path_1145" data-name="Path 1145" d="M196.276,230.932a1.512,1.512,0,0,1-1.091-.431.534.534,0,1,1,.753-.757c.227.225.784.116,1.122-.223l.051-.051a.907.907,0,0,0,0-1.369,1.078,1.078,0,0,0-.745-.413h-.009a1.036,1.036,0,0,0-.728.388,1.785,1.785,0,0,1-2.629.265.534.534,0,1,1,.725-.784c.183.169.575.368,1.129-.215a2,2,0,0,1,1.527-.722,2.12,2.12,0,0,1,1.526.768,1.977,1.977,0,0,1-.046,2.84l-.045.045a2.247,2.247,0,0,1-1.542.658" transform="translate(-176.587 -207.821)"/>
        <path id="Path_1146" data-name="Path 1146" d="M256.224,270.359a.532.532,0,0,1-.377-.155l-.474-.471a.534.534,0,1,1,.753-.757l.474.471a.534.534,0,0,1-.377.913" transform="translate(-234.844 -247.231)"/>
        <path id="Path_1147" data-name="Path 1147" d="M181.19,195.816a.532.532,0,0,1-.376-.154l-.52-.513a.534.534,0,0,1,.751-.759l.52.513a.534.534,0,0,1-.376.914" transform="translate(-164.732 -177.579)"/>
        <path id="Path_1148" data-name="Path 1148" d="M219.8,316.744c-.065,0-.13,0-.195,0a.534.534,0,0,1,.017-1.068h.018a5.1,5.1,0,0,0,.592-.017.534.534,0,0,1,.094,1.064c-.175.016-.351.023-.526.023" transform="translate(-201.109 -290.967)"/>
        <path id="Path_1149" data-name="Path 1149" d="M144.563,164.785a.536.536,0,0,1-.178-.031,5.852,5.852,0,0,1-2.2-1.393,5.913,5.913,0,1,1,6.359,1.321.534.534,0,0,1-.392-.994,4.846,4.846,0,1,0-3.407.059.534.534,0,0,1-.178,1.037" transform="translate(-127.672 -139.318)"/>
      </g>
      <path id="Path_1150" data-name="Path 1150" d="M14.094,43a.733.733,0,0,1-.519-.215L.215,29.421a.734.734,0,0,1,0-1.039L28.382.216a.734.734,0,0,1,1.039,0L42.78,13.575a.734.734,0,0,1,0,1.039L14.614,42.78a.733.733,0,0,1-.519.215M1.773,28.9l12.321,12.32L41.222,14.094,28.9,1.774Z" transform="translate(0 0)"/>
    </g>
  </g>
</svg>
