<svg id="Group_1431" data-name="Group 1431" xmlns="http://www.w3.org/2000/svg" xmlns:xlink="http://www.w3.org/1999/xlink" width="44.623" height="37.989" viewBox="0 0 44.623 37.989">
  <defs>
    <clipPath id="clip-path">
      <rect id="Rectangle_367" data-name="Rectangle 367" width="44.623" height="37.989" fill="none"/>
    </clipPath>
  </defs>
  <g id="Group_1430" data-name="Group 1430" transform="translate(0 0)" clip-path="url(#clip-path)">
    <g id="Group_1439" data-name="Group 1439" transform="translate(2.155 2.155)">
      <path id="Path_1155" data-name="Path 1155" d="M213.823,68.965a.558.558,0,0,1-.558-.557c0-.9-1.182-.934-1.333-.934h-.087a1.8,1.8,0,0,0-1.066.37.559.559,0,0,1-.552.492h0a.558.558,0,0,1-.558-.556,1.3,1.3,0,0,1,.864-1.1,3.125,3.125,0,0,1,1.313-.322h.094a2.176,2.176,0,0,1,2.444,2.047.559.559,0,0,1-.557.56Z" transform="translate(-192.009 -61.05)"/>
      <path id="Path_1156" data-name="Path 1156" d="M209.288,108.7a2.319,2.319,0,0,1-2.448-2.047.558.558,0,0,1,.557-.56h0a.558.558,0,0,1,.558.557c0,.481.648.934,1.332.934h.088a1.284,1.284,0,0,0,1.368-1.348,1.513,1.513,0,0,0-.336-1.136,1.4,1.4,0,0,0-1.1-.351,2.165,2.165,0,0,1-2.485-2.015.558.558,0,0,1,.536-.58.564.564,0,0,1,.58.536c.014.365.2.981,1.338.942a2.534,2.534,0,0,1,1.936.689,2.583,2.583,0,0,1,.651,1.976,2.406,2.406,0,0,1-2.482,2.4h-.091Z" transform="translate(-189.361 -94.37)"/>
      <path id="Path_1157" data-name="Path 1157" d="M235.189,183.966a.558.558,0,0,1-.558-.557l0-.852a.558.558,0,0,1,.557-.56h0a.558.558,0,0,1,.558.557l0,.852a.558.558,0,0,1-.557.56Z" transform="translate(-215.246 -168.691)"/>
      <path id="Path_1158" data-name="Path 1158" d="M234.758,54.932a.558.558,0,0,1-.558-.555l-.006-.932a.559.559,0,0,1,.555-.562h0a.558.558,0,0,1,.558.555l.006.932a.559.559,0,0,1-.555.562Z" transform="translate(-214.842 -48.507)"/>
      <path id="Path_1159" data-name="Path 1159" d="M170.123,187.2a.555.555,0,0,1-.358-.13,6.98,6.98,0,0,1-.6-.573.559.559,0,0,1,.816-.764,5.667,5.667,0,0,0,.507.48.559.559,0,0,1-.359.987" transform="translate(-154.165 -172.002)"/>
      <path id="Path_1160" data-name="Path 1160" d="M151.375,46.587a6.767,6.767,0,0,1-2.865-.628.558.558,0,1,1,.469-1.013,5.712,5.712,0,1,0-2.657-2.521.558.558,0,0,1-.987.522,6.831,6.831,0,1,1,6.041,3.64" transform="translate(-131.392 -29.931)"/>
    </g>
    <path id="Path_1161" data-name="Path 1161" d="M130.541,324.766a.735.735,0,0,1-.418-1.339c4.9-3.388,5.184-7.217,5.186-7.255a.735.735,0,0,1,1.466.088c-.011.185-.334,4.586-5.818,8.376a.728.728,0,0,1-.417.131" transform="translate(-117.995 -286.777)"/>
    <path id="Path_1162" data-name="Path 1162" d="M290.247,324.774a.728.728,0,0,1-.417-.131c-5.483-3.79-5.807-8.19-5.818-8.376a.734.734,0,0,1,.69-.777.751.751,0,0,1,.777.686c.011.163.333,3.9,5.186,7.259a.735.735,0,0,1-.418,1.339" transform="translate(-258.17 -286.785)"/>
    <path id="Path_1163" data-name="Path 1163" d="M241.924,402.845H231.586a.735.735,0,0,1,0-1.469h10.339a.735.735,0,1,1,0,1.469" transform="translate(-209.847 -364.856)"/>
    <path id="Path_1164" data-name="Path 1164" d="M196.869,402.845h-.844a.735.735,0,0,1,0-1.469h.844a.735.735,0,1,1,0,1.469" transform="translate(-177.522 -364.856)"/>
    <path id="Path_1165" data-name="Path 1165" d="M134.3,402.845h-3.754a.735.735,0,0,1,0-1.469H134.3a.735.735,0,0,1,0,1.469" transform="translate(-117.996 -364.856)"/>
    <path id="Path_1166" data-name="Path 1166" d="M38.055,29.91H6.568A6.575,6.575,0,0,1,0,23.343V6.568A6.575,6.575,0,0,1,6.568,0H38.055a6.575,6.575,0,0,1,6.568,6.568V23.343a6.575,6.575,0,0,1-6.568,6.568M6.568,1.469a5.1,5.1,0,0,0-5.1,5.1V23.343a5.1,5.1,0,0,0,5.1,5.1H38.055a5.1,5.1,0,0,0,5.1-5.1V6.568a5.1,5.1,0,0,0-5.1-5.1Z"/>
    <path id="Path_1167" data-name="Path 1167" d="M46.652,249.943H3.968a.735.735,0,0,1,0-1.469H46.652a.735.735,0,0,1,0,1.469" transform="translate(-2.939 -225.866)"/>
    <path id="Path_1168" data-name="Path 1168" d="M181.156,281.908H168.965a.735.735,0,0,1,0-1.469h12.192a.735.735,0,1,1,0,1.469" transform="translate(-152.923 -254.923)"/>
  </g>
</svg>
