<svg xmlns="http://www.w3.org/2000/svg" width="30" height="30" viewBox="0 0 30 30">
  <path id="Icon_simple-whatsapp" data-name="Icon simple-whatsapp" d="M21.872,17.977c-.376-.187-2.209-1.084-2.55-1.207s-.591-.187-.841.188-.964,1.2-1.18,1.452-.436.263-.807.094a10.145,10.145,0,0,1-3-1.856,11.341,11.341,0,0,1-2.075-2.587c-.217-.375-.024-.581.162-.769.17-.169.376-.431.564-.654a3.169,3.169,0,0,0,.371-.62.687.687,0,0,0-.031-.655c-.094-.188-.84-2.025-1.153-2.758s-.609-.637-.84-.637c-.215-.019-.464-.019-.714-.019a1.409,1.409,0,0,0-1,.449,4.173,4.173,0,0,0-1.306,3.094A7.314,7.314,0,0,0,9,15.335a16.668,16.668,0,0,0,6.375,5.606c.892.375,1.588.6,2.13.786a5.171,5.171,0,0,0,2.35.151,3.847,3.847,0,0,0,2.52-1.782,3.094,3.094,0,0,0,.225-1.781c-.092-.169-.337-.263-.712-.431m-6.807,9.3h-.02a12.5,12.5,0,0,1-6.319-1.725l-.45-.267L3.6,26.414l1.256-4.556-.3-.469A12.4,12.4,0,0,1,23.866,6.095,12.235,12.235,0,0,1,27.5,14.832,12.413,12.413,0,0,1,15.084,27.189M25.65,4.311A15.177,15.177,0,0,0,15.056,0,14.862,14.862,0,0,0,2.12,22.3L0,30l7.919-2.065a15.078,15.078,0,0,0,7.137,1.809h.008A14.925,14.925,0,0,0,30,14.874,14.743,14.743,0,0,0,25.631,4.36"/>
</svg>
